<?xml version="1.0" encoding="utf-8"?>
<!-- Generator: Adobe Illustrator 21.0.2, SVG Export Plug-In . SVG Version: 6.00 Build 0)  -->
<svg version="1.1" id="Layer_1" xmlns="http://www.w3.org/2000/svg" xmlns:xlink="http://www.w3.org/1999/xlink" x="0px" y="0px"
	 width="98.9px" height="76.5px" viewBox="0 0 98.9 76.5" style="enable-background:new 0 0 98.9 76.5;" xml:space="preserve">
<g id="Layer_x0020_1">
	<path d="M33.4,32.8c0.5,1.1,0.3,11.1,0.1,12.9c-0.2,1.8-0.5,4.7-1.3,6.6c-1.2,2.7-3.6,4.6-5.7,4.8c-6.2,0.8-12.3-9.3-14.7-14.6
		c-0.9-2.1-1.5-4.2-2.2-6.2c1.8-1.1,9.1-2.4,11.8-2.6l2.9-0.3C25.6,33.2,32.6,32.7,33.4,32.8z M11.5,5.8c0.5,0.1,1-0.4,0.5-1
		c-1.3-1.9-3.9,2.1-4.4,3.1c-1.3,3.1-2,9.1-2,12.2c-0.1,3.7,0.8,10,1.8,13.8c0.3,0.6,0.5,1.3,0.5,1.8c-0.8,0.5-2.3,1.1-4.2,2.5
		C2.8,39,0,42,0.9,43.4c0.1,0.3,0.3,0.3,0.5,0.2c0.5-0.3,0.9-0.9,0.2-1.1c0.2-1.7,1.4-2.7,2.8-3.6c0.9-0.7,2.9-1.9,3.9-2l2.4,6.5
		c1.6,4,5.2,9.6,8.6,12.4c5.3,4.4,9.5,3.4,13.1-2.2c2.8-4.3,2.7-12.4,2.6-17.4c0.1-1-0.2-2.8,0-3.4c0.5-0.2,2.7-0.3,3.2-0.1
		c-0.2,0.9-0.7,2-0.7,3c-0.2,1.1-0.3,2-0.2,3.1c0,3.8,0.7,8.3,2,12c0.5,1.1,2.4,4.6,3.6,5.7c0.8,0.7,1,1.3,1.7,0.4
		c0.1-0.2-2.9-4.3-3.2-4.8c-0.5-1.1-1.4-3.3-1.6-4.3c1-1.6,1.9-2,2.4-3.9c0.7-2.5,0.5-4.8,0.3-7.4c0.1-1-0.4-2.8-0.3-3.6
		c0.5-0.2,2.9,0,3.4,0.1l5,0.3c0.7,0.2,0.7,0.7,1.1,1.4c0.4,1.1,1.1,2.3,1.1,3.2c0.5,10.3,2.1,16.6,6.4,26.3
		c0.6,1.6,5,12.2,7.2,12.4c0.6-0.1,1-0.8,1-1.3c0.5-1.6-1.2-8.3-1.4-9.4c-1.3-4.9-5.7-15.6-8.2-20.8c-0.7-1.4-4.5-9.4-4.3-10.3
		c0-0.7-0.2-0.5-0.1-1.2l0.8,0.1c0.7,1,0.5,3.7,1.3,4.2c0.6,0.2,1-0.2,0.8-0.7c0-0.3-0.9-2.8-0.6-3.3c0.5,0.2,2.4,0.4,3,0.5l9.3,1.8
		c1.9,0.4,11.4,2.5,12.6,3.4c0.4-0.3,16.1,4.3,17.5,4.9l1-1.3c-1.6-0.7-3.8-1.1-5.5-1.7c-11.8-3.4-23.3-6.8-35.6-8.7
		c-0.8-0.1-2.1-0.1-2.7-0.5c-0.2-0.7-0.4-1.8-0.5-2.6l-1.8-7.7c-0.4-1.6-2.5-9-5.1-9.7c-0.8-0.3-1.8,0.7-2.2,1.7
		c-0.6,1.5-0.1,3.9,0.1,5.3c0.2,0.9,0.4,1.6,0.7,2.6c1,2.9,2.7,7,4,10l-8.5-0.4c-0.5-0.5-0.1-1-1.1-1.6c-0.8,0.3-0.8,0.6-1.5,1.2
		c-0.5,0.5-0.9,0.2-1.5,0.3c-0.9,0-2.4,0.1-3.1,0l-1.2-8.7c-1-4.7-2.4-9.8-6-14C24,5,19.8,1.4,15.3,0.4C13.2-0.1,11-0.2,9.4,0.4
		C6.8,1.1,6,2.2,4.1,4.4c-3,3.6-4,8.2-4.1,11.8c0.1,2,0.2,3.7,0.6,5.5c0.3,1.1,0.9,3.1,1.6,4.6c0.7,1.4,1.8,3,2.6,4.5
		C5,31,5,31.1,5.1,31.2c0.4,0.8,1.1,0.4,1-0.3c-0.6-1.7-1.5-2.9-2.1-4.1c-1.2-2.1-2.2-4.2-2.5-8.1C0.5,10.4,4.1-1.7,15.7,2
		c3.2,1,6.3,3.6,8.8,5.9c5.5,5.2,7.3,12.5,8.4,19.5c0.2,1.4,0.3,2.7,0.5,4l-9.2,0.7c-2.1,0.2-6.7,1-9,1.4C13,34,9.8,35.2,9.3,35.3
		c-0.5-1-1.5-6-1.7-7.4c-1-4.5-1.2-10.7-0.2-15.1c0.2-1.1,1-6.4,2.7-7.1c0.7-0.3,0.8,0.2,1.3,0.3L11.5,5.8z M77.8,45.7
		c0.3,0.8,0.8,3.2,0.2,4.1C77.4,49,76.9,46.6,77.8,45.7z M77.5,44.6c-0.7,1.6-1.4,1.3-1.3,3.3c-0.1,3.4,2.6,6.4,6,6.8
		c0.9,0.1,0.8,0,1.3-0.8c-0.2-0.5-1.8-0.9-2.5-1.2c-1-0.4-2.3-1.4-2.6-2.2c0-0.4,0.3-0.5,0.8-1.9c0.2-1.1,0.2-2.6-0.3-3.6
		C78.5,43.7,77.6,44.8,77.5,44.6C77.6,44.5,77.5,44.6,77.5,44.6L77.5,44.6z M47.3,50.4c-0.4,0.8-0.3,1.1-0.4,1.3c-2-1-2-4.2-1-5.7
		C46.4,46.6,47.6,49.5,47.3,50.4z M47.4,53.1c0.4,1.2,0.7,0.9,0.7,0.9c0.7,0.3,1.2-1.3,1.2-1.6c0.5,1,2.1,4.3,3.7,4.3
		c0.4,0,1.1-0.8,1.4-1.3c-0.7-0.5-1.8,0.2-3.6-3.1c-0.4-1.1-1-3.4-1.6-4c-0.2,0-0.5,0.2-0.7,0.2c-0.8-2.2-1.3-5.5-3.2-3.6
		c-0.5,0.7-1.1,1.4-1.3,2.1c-0.4,1.7-0.3,4.3,1.2,5.6C46.3,53.7,46.5,53.3,47.4,53.1z M65.7,54.3c0,0.4,0.2,0.5-0.1,1L65,54.8
		C65.3,54.5,65.4,54.6,65.7,54.3L65.7,54.3z M63.7,47.1c0.8,0.8,2.3,5.2,1.8,6.1c-1.6-0.3-2-1.2-2.4-2.6
		C63,49.6,62.6,48.3,63.7,47.1z M73.4,52.3c-2.7-2.3-1.3-5.8-2.6-6.3c-2.1,1.5,0.8,5.3-0.4,8.2c-2-1.7-2.7-4.2-2.8-6.5
		c0-0.5,0-1.9-0.6-2.1c-1.7,0.1-0.3,4.6-0.5,5.6c-0.3-0.6-0.8-4.6-2.4-5.6c-0.9,0.2-2.1,1.5-2.4,2.6c-0.8,2.6,0.3,4.2,1,5.8
		c0.3,1,1.1,2.1,2.3,2.7c2.3-0.9,1.3-2.9,2.2-4.2c1.3,1.9,2.2,5.1,4.1,2.2c0.4-0.8,0.4-1,0.5-1.6L73,54c0.8-0.4,1.4-1.4,1.8-2.4
		l0.8,1l0.8-1c-0.3-0.8-1.6-2.6-1.5-4.2c0-0.4,0.1-2.2-0.8-1.1C73.2,47.5,74.3,50.5,73.4,52.3L73.4,52.3z M39,32.8h1.6
		c0.7,1.2,0.8,5.3,0.8,6.9c0.1,2,0.2,5.2-2.1,7.4C38.3,44.9,37.5,35.2,39,32.8z M54.1,40.8c0.6,0.8,1.4,3.1,1.8,4.1
		c1.8,4,4.2,8.6,5.6,12.4c1.2,2.9,2.1,5.6,2.9,8.4c0.7,2,1.9,7.1,1.7,8.7c-3.5-3.2-9.6-19.3-10.8-25c-0.6-2.3-0.8-4.3-1.1-6.5
		L54.1,40.8L54.1,40.8z M48.6,14.9c2,2.8,4.1,11.3,4.8,14.9c0.2,0.5,0.2,0.7,0.3,1.3c0.1,0.6,0.2,0.7,0.1,1.2
		c-1.1-0.3-1.9,0.1-2.4-0.9C50,28.1,45.2,17.1,46.3,14C46.7,12.7,48.2,14.3,48.6,14.9L48.6,14.9z"/>
</g>
</svg>
